<svg width="608" height="216" viewBox="0 0 608 216" fill="none" xmlns="http://www.w3.org/2000/svg">
<g filter="url(#filter0_bdi_163_101)">
<path d="M17.0288 9.16V43.72C17.0288 47.5067 18.0154 50.4133 19.9888 52.44C21.9621 54.4133 24.7354 55.4 28.3088 55.4C31.9354 55.4 34.7354 54.4133 36.7088 52.44C38.6821 50.4133 39.6688 47.5067 39.6688 43.72V9.16H50.9488V43.64C50.9488 48.3867 49.9088 52.4133 47.8288 55.72C45.8021 58.9733 43.0554 61.4267 39.5888 63.08C36.1754 64.7333 32.3621 65.56 28.1488 65.56C23.9888 65.56 20.2021 64.7333 16.7888 63.08C13.4288 61.4267 10.7621 58.9733 8.78875 55.72C6.81542 52.4133 5.82875 48.3867 5.82875 43.64V9.16H17.0288ZM67.45 15.4C65.4767 15.4 63.8233 14.7867 62.49 13.56C61.21 12.28 60.57 10.7067 60.57 8.84C60.57 6.97333 61.21 5.42666 62.49 4.2C63.8233 2.92 65.4767 2.28 67.45 2.28C69.4233 2.28 71.05 2.92 72.33 4.2C73.6633 5.42666 74.33 6.97333 74.33 8.84C74.33 10.7067 73.6633 12.28 72.33 13.56C71.05 14.7867 69.4233 15.4 67.45 15.4ZM72.97 20.68V65H61.77V20.68H72.97ZM124.756 26.44C124.756 29.4267 124.036 32.2267 122.596 34.84C121.209 37.4533 118.996 39.56 115.956 41.16C112.969 42.76 109.182 43.56 104.596 43.56H95.2356V65H84.0356V9.16H104.596C108.916 9.16 112.596 9.90667 115.636 11.4C118.676 12.8933 120.942 14.9467 122.436 17.56C123.982 20.1733 124.756 23.1333 124.756 26.44ZM104.116 34.52C107.209 34.52 109.502 33.8267 110.996 32.44C112.489 31 113.236 29 113.236 26.44C113.236 21 110.196 18.28 104.116 18.28H95.2356V34.52H104.116ZM129.827 42.68C129.827 38.2 130.707 34.2267 132.467 30.76C134.281 27.2933 136.708 24.6267 139.748 22.76C142.841 20.8933 146.281 19.96 150.068 19.96C153.374 19.96 156.254 20.6267 158.708 21.96C161.214 23.2933 163.214 24.9733 164.708 27V20.68H175.988V65H164.708V58.52C163.268 60.6 161.268 62.3333 158.708 63.72C156.201 65.0533 153.294 65.72 149.988 65.72C146.254 65.72 142.841 64.76 139.748 62.84C136.708 60.92 134.281 58.2267 132.467 54.76C130.707 51.24 129.827 47.2133 129.827 42.68ZM164.708 42.84C164.708 40.12 164.174 37.8 163.108 35.88C162.041 33.9067 160.601 32.4133 158.788 31.4C156.974 30.3333 155.028 29.8 152.948 29.8C150.868 29.8 148.948 30.3067 147.188 31.32C145.428 32.3333 143.988 33.8267 142.868 35.8C141.801 37.72 141.268 40.0133 141.268 42.68C141.268 45.3467 141.801 47.6933 142.868 49.72C143.988 51.6933 145.428 53.2133 147.188 54.28C149.001 55.3467 150.921 55.88 152.948 55.88C155.028 55.88 156.974 55.3733 158.788 54.36C160.601 53.2933 162.041 51.8 163.108 49.88C164.174 47.9067 164.708 45.56 164.708 42.84ZM199.966 29.88V51.32C199.966 52.8133 200.313 53.9067 201.006 54.6C201.753 55.24 202.98 55.56 204.686 55.56H209.886V65H202.846C193.406 65 188.686 60.4133 188.686 51.24V29.88H183.406V20.68H188.686V9.72H199.966V20.68H209.886V29.88H199.966ZM242.902 20.04C246.262 20.04 249.249 20.7867 251.862 22.28C254.475 23.72 256.502 25.88 257.942 28.76C259.435 31.5867 260.182 35 260.182 39V65H248.982V40.52C248.982 37 248.102 34.3067 246.342 32.44C244.582 30.52 242.182 29.56 239.142 29.56C236.049 29.56 233.595 30.52 231.782 32.44C230.022 34.3067 229.142 37 229.142 40.52V65H217.942V5.8H229.142V26.2C230.582 24.28 232.502 22.7867 234.902 21.72C237.302 20.6 239.969 20.04 242.902 20.04ZM61.5109 157C61.5109 151.507 62.7376 146.6 65.1909 142.28C67.6976 137.907 71.0843 134.52 75.3509 132.12C79.6709 129.667 84.4976 128.44 89.8309 128.44C96.0709 128.44 101.538 130.04 106.231 133.24C110.924 136.44 114.204 140.867 116.071 146.52H103.191C101.911 143.853 100.098 141.853 97.7509 140.52C95.4576 139.187 92.7909 138.52 89.7509 138.52C86.4976 138.52 83.5909 139.293 81.0309 140.84C78.5243 142.333 76.5509 144.467 75.1109 147.24C73.7243 150.013 73.0309 153.267 73.0309 157C73.0309 160.68 73.7243 163.933 75.1109 166.76C76.5509 169.533 78.5243 171.693 81.0309 173.24C83.5909 174.733 86.4976 175.48 89.7509 175.48C92.7909 175.48 95.4576 174.813 97.7509 173.48C100.098 172.093 101.911 170.067 103.191 167.4H116.071C114.204 173.107 110.924 177.56 106.231 180.76C101.591 183.907 96.1243 185.48 89.8309 185.48C84.4976 185.48 79.6709 184.28 75.3509 181.88C71.0843 179.427 67.6976 176.04 65.1909 171.72C62.7376 167.4 61.5109 162.493 61.5109 157ZM145.317 185.72C141.051 185.72 137.211 184.787 133.797 182.92C130.384 181 127.691 178.307 125.717 174.84C123.797 171.373 122.837 167.373 122.837 162.84C122.837 158.307 123.824 154.307 125.797 150.84C127.824 147.373 130.571 144.707 134.037 142.84C137.504 140.92 141.371 139.96 145.637 139.96C149.904 139.96 153.771 140.92 157.237 142.84C160.704 144.707 163.424 147.373 165.397 150.84C167.424 154.307 168.437 158.307 168.437 162.84C168.437 167.373 167.397 171.373 165.317 174.84C163.291 178.307 160.517 181 156.997 182.92C153.531 184.787 149.637 185.72 145.317 185.72ZM145.317 175.96C147.344 175.96 149.237 175.48 150.997 174.52C152.811 173.507 154.251 172.013 155.317 170.04C156.384 168.067 156.917 165.667 156.917 162.84C156.917 158.627 155.797 155.4 153.557 153.16C151.371 150.867 148.677 149.72 145.477 149.72C142.277 149.72 139.584 150.867 137.397 153.16C135.264 155.4 134.197 158.627 134.197 162.84C134.197 167.053 135.237 170.307 137.317 172.6C139.451 174.84 142.117 175.96 145.317 175.96ZM231.693 140.04C237.133 140.04 241.506 141.72 244.813 145.08C248.173 148.387 249.853 153.027 249.853 159V185H238.653V160.52C238.653 157.053 237.773 154.413 236.013 152.6C234.253 150.733 231.853 149.8 228.813 149.8C225.773 149.8 223.346 150.733 221.533 152.6C219.773 154.413 218.893 157.053 218.893 160.52V185H207.693V160.52C207.693 157.053 206.813 154.413 205.053 152.6C203.293 150.733 200.893 149.8 197.853 149.8C194.759 149.8 192.306 150.733 190.493 152.6C188.733 154.413 187.853 157.053 187.853 160.52V185H176.653V140.68H187.853V146.04C189.293 144.173 191.133 142.707 193.373 141.64C195.666 140.573 198.173 140.04 200.893 140.04C204.359 140.04 207.453 140.787 210.173 142.28C212.893 143.72 214.999 145.8 216.493 148.52C217.933 145.96 220.013 143.907 222.733 142.36C225.506 140.813 228.493 140.04 231.693 140.04ZM315.521 140.04C320.961 140.04 325.334 141.72 328.641 145.08C332.001 148.387 333.681 153.027 333.681 159V185H322.481V160.52C322.481 157.053 321.601 154.413 319.841 152.6C318.081 150.733 315.681 149.8 312.641 149.8C309.601 149.8 307.174 150.733 305.361 152.6C303.601 154.413 302.721 157.053 302.721 160.52V185H291.521V160.52C291.521 157.053 290.641 154.413 288.881 152.6C287.121 150.733 284.721 149.8 281.681 149.8C278.588 149.8 276.134 150.733 274.321 152.6C272.561 154.413 271.681 157.053 271.681 160.52V185H260.481V140.68H271.681V146.04C273.121 144.173 274.961 142.707 277.201 141.64C279.494 140.573 282.001 140.04 284.721 140.04C288.188 140.04 291.281 140.787 294.001 142.28C296.721 143.72 298.828 145.8 300.321 148.52C301.761 145.96 303.841 143.907 306.561 142.36C309.334 140.813 312.321 140.04 315.521 140.04ZM386.149 140.68V185H374.869V179.4C373.429 181.32 371.536 182.84 369.189 183.96C366.896 185.027 364.389 185.56 361.669 185.56C358.202 185.56 355.136 184.84 352.469 183.4C349.802 181.907 347.696 179.747 346.149 176.92C344.656 174.04 343.909 170.627 343.909 166.68V140.68H355.109V165.08C355.109 168.6 355.989 171.32 357.749 173.24C359.509 175.107 361.909 176.04 364.949 176.04C368.042 176.04 370.469 175.107 372.229 173.24C373.989 171.32 374.869 168.6 374.869 165.08V140.68H386.149ZM421.76 140.04C427.04 140.04 431.306 141.72 434.56 145.08C437.813 148.387 439.44 153.027 439.44 159V185H428.24V160.52C428.24 157 427.36 154.307 425.6 152.44C423.84 150.52 421.44 149.56 418.4 149.56C415.306 149.56 412.853 150.52 411.04 152.44C409.28 154.307 408.4 157 408.4 160.52V185H397.2V140.68H408.4V146.2C409.893 144.28 411.786 142.787 414.08 141.72C416.426 140.6 418.986 140.04 421.76 140.04ZM455.77 135.4C453.797 135.4 452.144 134.787 450.81 133.56C449.53 132.28 448.89 130.707 448.89 128.84C448.89 126.973 449.53 125.427 450.81 124.2C452.144 122.92 453.797 122.28 455.77 122.28C457.744 122.28 459.37 122.92 460.65 124.2C461.984 125.427 462.65 126.973 462.65 128.84C462.65 130.707 461.984 132.28 460.65 133.56C459.37 134.787 457.744 135.4 455.77 135.4ZM461.29 140.68V185H450.09V140.68H461.29ZM485.396 149.88V171.32C485.396 172.813 485.743 173.907 486.436 174.6C487.183 175.24 488.409 175.56 490.116 175.56H495.316V185H488.276C478.836 185 474.116 180.413 474.116 171.24V149.88H468.836V140.68H474.116V129.72H485.396V140.68H495.316V149.88H485.396ZM545.772 140.68L518.332 205.96H506.412L516.012 183.88L498.252 140.68H510.812L522.252 171.64L533.852 140.68H545.772Z" fill="#FFF5EA"/>
<path d="M309.175 65.56C305.282 65.56 301.762 64.8933 298.615 63.56C295.522 62.2267 293.068 60.3067 291.255 57.8C289.442 55.2933 288.508 52.3333 288.455 48.92H300.455C300.615 51.2133 301.415 53.0267 302.855 54.36C304.348 55.6933 306.375 56.36 308.935 56.36C311.548 56.36 313.602 55.7467 315.095 54.52C316.588 53.24 317.335 51.5867 317.335 49.56C317.335 47.9067 316.828 46.5467 315.815 45.48C314.802 44.4133 313.522 43.5867 311.975 43C310.482 42.36 308.402 41.6667 305.735 40.92C302.108 39.8533 299.148 38.8133 296.855 37.8C294.615 36.7333 292.668 35.16 291.015 33.08C289.415 30.9467 288.615 28.12 288.615 24.6C288.615 21.2933 289.442 18.4133 291.095 15.96C292.748 13.5067 295.068 11.64 298.055 10.36C301.042 9.02667 304.455 8.36 308.295 8.36C314.055 8.36 318.722 9.77333 322.295 12.6C325.922 15.3733 327.922 19.2667 328.295 24.28H315.975C315.868 22.36 315.042 20.7867 313.495 19.56C312.002 18.28 310.002 17.64 307.495 17.64C305.308 17.64 303.548 18.2 302.215 19.32C300.935 20.44 300.295 22.0667 300.295 24.2C300.295 25.6933 300.775 26.9467 301.735 27.96C302.748 28.92 303.975 29.72 305.415 30.36C306.908 30.9467 308.988 31.64 311.655 32.44C315.282 33.5067 318.242 34.5733 320.535 35.64C322.828 36.7067 324.802 38.3067 326.455 40.44C328.108 42.5733 328.935 45.3733 328.935 48.84C328.935 51.8267 328.162 54.6 326.615 57.16C325.068 59.72 322.802 61.7733 319.815 63.32C316.828 64.8133 313.282 65.56 309.175 65.56ZM351.685 29.88V51.32C351.685 52.8133 352.032 53.9067 352.725 54.6C353.472 55.24 354.698 55.56 356.405 55.56H361.605V65H354.565C345.125 65 340.405 60.4133 340.405 51.24V29.88H335.125V20.68H340.405V9.72H351.685V20.68H361.605V29.88H351.685ZM411.501 20.68V65H400.221V59.4C398.781 61.32 396.887 62.84 394.541 63.96C392.247 65.0267 389.741 65.56 387.021 65.56C383.554 65.56 380.487 64.84 377.821 63.4C375.154 61.9067 373.047 59.7467 371.501 56.92C370.007 54.04 369.261 50.6267 369.261 46.68V20.68H380.461V45.08C380.461 48.6 381.341 51.32 383.101 53.24C384.861 55.1067 387.261 56.04 390.301 56.04C393.394 56.04 395.821 55.1067 397.581 53.24C399.341 51.32 400.221 48.6 400.221 45.08V20.68H411.501ZM419.671 42.68C419.671 38.2 420.551 34.2267 422.311 30.76C424.125 27.2933 426.578 24.6267 429.671 22.76C432.765 20.8933 436.205 19.96 439.991 19.96C442.871 19.96 445.618 20.6 448.231 21.88C450.845 23.1067 452.925 24.76 454.471 26.84V5.8H465.831V65H454.471V58.44C453.085 60.6267 451.138 62.3867 448.631 63.72C446.125 65.0533 443.218 65.72 439.911 65.72C436.178 65.72 432.765 64.76 429.671 62.84C426.578 60.92 424.125 58.2267 422.311 54.76C420.551 51.24 419.671 47.2133 419.671 42.68ZM454.551 42.84C454.551 40.12 454.018 37.8 452.951 35.88C451.885 33.9067 450.445 32.4133 448.631 31.4C446.818 30.3333 444.871 29.8 442.791 29.8C440.711 29.8 438.791 30.3067 437.031 31.32C435.271 32.3333 433.831 33.8267 432.711 35.8C431.645 37.72 431.111 40.0133 431.111 42.68C431.111 45.3467 431.645 47.6933 432.711 49.72C433.831 51.6933 435.271 53.2133 437.031 54.28C438.845 55.3467 440.765 55.88 442.791 55.88C444.871 55.88 446.818 55.3733 448.631 54.36C450.445 53.2933 451.885 51.8 452.951 49.88C454.018 47.9067 454.551 45.56 454.551 42.84ZM517.97 41.88C517.97 43.48 517.863 44.92 517.65 46.2H485.25C485.517 49.4 486.637 51.9067 488.61 53.72C490.583 55.5333 493.01 56.44 495.89 56.44C500.05 56.44 503.01 54.6533 504.77 51.08H516.85C515.57 55.3467 513.117 58.8667 509.49 61.64C505.863 64.36 501.41 65.72 496.13 65.72C491.863 65.72 488.023 64.7867 484.61 62.92C481.25 61 478.61 58.3067 476.69 54.84C474.823 51.3733 473.89 47.3733 473.89 42.84C473.89 38.2533 474.823 34.2267 476.69 30.76C478.557 27.2933 481.17 24.6267 484.53 22.76C487.89 20.8933 491.757 19.96 496.13 19.96C500.343 19.96 504.103 20.8667 507.41 22.68C510.77 24.4933 513.357 27.08 515.17 30.44C517.037 33.7467 517.97 37.56 517.97 41.88ZM506.37 38.68C506.317 35.8 505.277 33.5067 503.25 31.8C501.223 30.04 498.743 29.16 495.81 29.16C493.037 29.16 490.69 30.0133 488.77 31.72C486.903 33.3733 485.757 35.6933 485.33 38.68H506.37ZM550.705 20.04C555.985 20.04 560.252 21.72 563.505 25.08C566.758 28.3867 568.385 33.0267 568.385 39V65H557.185V40.52C557.185 37 556.305 34.3067 554.545 32.44C552.785 30.52 550.385 29.56 547.345 29.56C544.252 29.56 541.798 30.52 539.985 32.44C538.225 34.3067 537.345 37 537.345 40.52V65H526.145V20.68H537.345V26.2C538.838 24.28 540.732 22.7867 543.025 21.72C545.372 20.6 547.932 20.04 550.705 20.04ZM592.076 29.88V51.32C592.076 52.8133 592.422 53.9067 593.116 54.6C593.862 55.24 595.089 55.56 596.796 55.56H601.996V65H594.956C585.516 65 580.796 60.4133 580.796 51.24V29.88H575.516V20.68H580.796V9.72H592.076V20.68H601.996V29.88H592.076Z" fill="url(#paint0_linear_163_101)"/>
</g>
<defs>
<filter id="filter0_bdi_163_101" x="-13.5713" y="-17.12" width="634.967" height="242.48" filterUnits="userSpaceOnUse" color-interpolation-filters="sRGB">
<feFlood flood-opacity="0" result="BackgroundImageFix"/>
<feGaussianBlur in="BackgroundImageFix" stdDeviation="9.7"/>
<feComposite in2="SourceAlpha" operator="in" result="effect1_backgroundBlur_163_101"/>
<feColorMatrix in="SourceAlpha" type="matrix" values="0 0 0 0 0 0 0 0 0 0 0 0 0 0 0 0 0 0 127 0" result="hardAlpha"/>
<feOffset dy="4"/>
<feGaussianBlur stdDeviation="2.65"/>
<feComposite in2="hardAlpha" operator="out"/>
<feColorMatrix type="matrix" values="0 0 0 0 0 0 0 0 0 0 0 0 0 0 0 0 0 0 0.56 0"/>
<feBlend mode="normal" in2="effect1_backgroundBlur_163_101" result="effect2_dropShadow_163_101"/>
<feBlend mode="normal" in="SourceGraphic" in2="effect2_dropShadow_163_101" result="shape"/>
<feColorMatrix in="SourceAlpha" type="matrix" values="0 0 0 0 0 0 0 0 0 0 0 0 0 0 0 0 0 0 127 0" result="hardAlpha"/>
<feOffset dy="4"/>
<feGaussianBlur stdDeviation="7.05"/>
<feComposite in2="hardAlpha" operator="arithmetic" k2="-1" k3="1"/>
<feColorMatrix type="matrix" values="0 0 0 0 1 0 0 0 0 1 0 0 0 0 1 0 0 0 0.25 0"/>
<feBlend mode="normal" in2="shape" result="effect3_innerShadow_163_101"/>
</filter>
<linearGradient id="paint0_linear_163_101" x1="461" y1="97.5" x2="463.374" y2="15.424" gradientUnits="userSpaceOnUse">
<stop stop-color="#FFB38A"/>
<stop offset="0.999188" stop-color="#FF5A00"/>
</linearGradient>
</defs>
</svg>
